<svg id="Layer_1" enable-background="new 0 0 512 512" height="512" viewBox="0 0 512 512" width="512" xmlns="http://www.w3.org/2000/svg"><g><g><g><g><g><g><g><g><g><circle cx="256" cy="256" fill="#00c8c8" r="256"/></g></g></g></g></g></g></g></g><path d="m512 256c0-20.203-2.34-39.86-6.765-58.713l-82.713-82.713-11.907 28.734-57.787-57.787-241.216 51.455v128.978l147.117 147.116-80.919 30.567 68.171 68.171c3.324.127 6.664.192 10.019.192 141.385 0 256-114.615 256-256z" fill="#13aaaa"/><g><path d="m210.445 295.709-98.833-29.756-22.136-151.38h120.968v181.136zm-71.909-52.98 41.91 12.618v-110.773h-56.262z" fill="#ffde55"/></g><g><path d="m301.555 295.709v-181.135h120.968l-22.135 151.38zm30-151.135v110.773l41.909-12.618 14.354-98.155z" fill="#ffce00"/></g><g><path d="m300.308 413.664h-88.616l16.942-129.013h54.732z" fill="#fa0"/></g><g><path d="m283.366 284.651h-27.246v129.013h44.188z" fill="#ff9500"/></g><g><path d="m256 335.219c-53.477 0-96.829-43.352-96.829-96.829v-152.869h193.658v152.87c0 53.477-43.352 96.828-96.829 96.828z" fill="#ffce00"/></g><g><path d="m256.12 85.521v249.697c53.422-.065 96.708-43.39 96.708-96.827v-152.87z" fill="#fdba12"/></g><g><path d="m177.81 390.207h156.38v53.43h-156.38z" fill="#ffce00"/></g><g><path d="m256.12 390.207h78.069v53.43h-78.069z" fill="#fdba12"/></g><g><circle cx="256" cy="209.067" fill="#ffde55" r="45.611"/></g><g><path d="m301.611 209.067c0-25.15-20.356-45.542-45.49-45.608v91.215c25.134-.065 45.49-20.457 45.49-45.607z" fill="#ffce00"/></g></g></svg>