<svg id="Layer_1" enable-background="new 0 0 512 512" height="512" viewBox="0 0 512 512" width="512" xmlns="http://www.w3.org/2000/svg"><g><g><g><g><g><g><g><g><g><circle cx="256" cy="256" fill="#a3d4ff" r="256"/></g></g></g></g></g></g></g></g><path d="m512 256c0-15.654-1.405-30.981-4.096-45.86l-78.035-78.035-241.129 59.69v236.052l83.637 83.637c133.754-8.444 239.623-119.6 239.623-255.484z" fill="#65b1fc"/><g><path d="m184.587 132.106h142.827l33.008 83.071h-197.988z" fill="#4855b7"/></g><g><path d="m327.414 132.105h-71.293v83.072h104.301z" fill="#27488f"/></g><g><path d="m295.349 356.399h-102.455l-110.763-224.293h102.456z" fill="#7584f2"/></g><g><path d="m216.651 356.399h102.455l110.763-224.293h-102.455z" fill="#606aea"/></g><g><circle cx="256" cy="362.189" fill="#ffce00" r="94.001"/></g><g><path d="m350.001 362.189c0-51.875-42.021-93.934-93.88-93.999v187.999c51.859-.066 93.88-42.125 93.88-94z" fill="#ffb600"/></g><g><circle cx="256" cy="362.189" fill="#fa0" r="56.814"/></g><g><path d="m312.814 362.189c0-31.337-25.372-56.745-56.693-56.811v113.622c31.321-.066 56.693-25.474 56.693-56.811z" fill="#ff9500"/></g></g></svg>