<svg id="Layer_1" enable-background="new 0 0 512 512" height="512" viewBox="0 0 512 512" width="512" xmlns="http://www.w3.org/2000/svg"><g><g><g><g><g><g><g><g><g><circle cx="256" cy="256" fill="#7584f2" r="256"/></g></g></g></g></g></g></g></g><g><path d="m126.465 435.084-.085-.084c-.036.074-.007.101.085.084z" fill="#606aea"/><path d="m512 256c0-18.513-1.965-36.566-5.698-53.963l-119.987-119.988-259.935 352.951.2.052c-.046.016-.084.027-.116.033l69.943 69.943c19.122 4.558 39.076 6.972 59.593 6.972 141.385 0 256-114.615 256-256z" fill="#4855b7"/></g><g><path d="m366.782 442.322h-221.564c-15.409 0-27.901-12.492-27.901-27.901v-312.456c0-15.409 12.492-27.901 27.901-27.901h221.565c15.409 0 27.901 12.492 27.901 27.901v312.455c-.001 15.41-12.492 27.902-27.902 27.902z" fill="#fff"/></g><g><path d="m366.782 74.065h-110.661v368.257h110.662c15.409 0 27.901-12.492 27.901-27.901v-312.456c-.001-15.409-12.492-27.9-27.902-27.9z" fill="#e9edf5"/></g><g><path d="m153.459 109.387h206.118v67.619h-206.118z" fill="#00c8c8"/></g><g><path d="m256.121 109.387h103.456v67.619h-103.456z" fill="#00a0aa"/></g><g><g><g><path d="m153.459 203.568h53.518v53.518h-53.518z" fill="#dce1eb"/></g><g><path d="m153.459 279.786h53.518v53.518h-53.518z" fill="#dce1eb"/></g><g><path d="m153.459 356.005h53.518v53.518h-53.518z" fill="#dce1eb"/></g></g><g><g><path d="m306.059 203.568h53.518v53.518h-53.518z" fill="#bec3d2"/></g><g><path d="m306.059 279.786h53.518v53.518h-53.518z" fill="#bec3d2"/></g><g><path d="m306.059 356.005h53.518v53.518h-53.518z" fill="#fe6a16"/></g></g><g><g><path d="m229.759 203.568h53.518v53.518h-53.518z" fill="#dce1eb"/></g><g><path d="m256.121 203.568h27.156v53.518h-27.156z" fill="#bec3d2"/></g><g><path d="m229.759 279.786h53.518v53.518h-53.518z" fill="#dce1eb"/></g><g><path d="m256.121 279.786h27.156v53.518h-27.156z" fill="#bec3d2"/></g><g><path d="m229.759 356.005h53.518v53.518h-53.518z" fill="#dce1eb"/></g><g><path d="m256.121 356.005h27.156v53.518h-27.156z" fill="#bec3d2"/></g></g></g></g></svg>