<svg id="Layer_1" enable-background="new 0 0 512 512" height="512" viewBox="0 0 512 512" width="512" xmlns="http://www.w3.org/2000/svg"><g><g><g><g><g><g><g><g><g><circle cx="256" cy="256" fill="#7584f2" r="256"/></g></g></g></g></g></g></g></g><path d="m512 256c0-9.125-.478-18.138-1.409-27.017l-86.359-86.359-7.361 8.059-255.351 56.839-43.702-43.702-57.818 66.3 132.645 132.644-50.218 72.303 73.873 73.873c12.938 2.015 26.197 3.06 39.7 3.06 141.385 0 256-114.615 256-256z" fill="#4855b7"/><g><path d="m292.806 223.503h30.001v223.268h-30.001z" fill="#ffce00" transform="matrix(.941 -.339 .339 .941 -95.423 124.263)"/></g><g><path d="m82.767 320.136h223.268v30.001h-223.268z" fill="#ffce00" transform="matrix(.339 -.941 .941 .339 -186.804 404.354)"/></g><g><path d="m60 183.084h57.818v47.035h-57.818z" fill="#fff"/></g><g><path d="m60 206.887h57.818v23.232h-57.818z" fill="#dce1eb"/></g><g><path d="m86.874 172.512h102.735v68.18h-102.735z" fill="#e9edf5"/></g><g><path d="m86.874 206.887h102.735v33.805h-102.735z" fill="#dce1eb"/></g><g><path d="m160.899 159.467h218.089v94.27h-218.089z" fill="#fff"/></g><g><path d="m160.899 206.887h218.089v46.85h-218.089z" fill="#e9edf5"/></g><g><ellipse cx="413.728" cy="206.602" fill="#a3d4ff" rx="39.022" ry="57.556"/></g><g><path d="m374.711 206.887c.105 31.656 17.531 57.271 39.018 57.271 21.486 0 38.913-25.615 39.017-57.271z" fill="#87c7ff"/></g><g><path d="m367.099 142.625h57.133v127.954h-57.133z" fill="#ffce00"/></g><g><path d="m367.099 206.887h57.134v63.692h-57.134z" fill="#fa0"/></g><g><path d="m85.134 163.82h32.684v85.563h-32.684z" fill="#ffce00"/></g><g><path d="m85.134 206.887h32.684v42.496h-32.684z" fill="#fa0"/></g></g></svg>